<svg width="120" height="24" viewBox="0 0 120 24" fill="none" xmlns="http://www.w3.org/2000/svg">
<path d="M20.4251 2.09356C20.4251 3.24981 19.492 4.18713 18.3409 4.18713C17.1899 4.18713 16.2567 3.24981 16.2567 2.09356C16.2567 0.93732 17.1899 0 18.3409 0C19.492 0 20.4251 0.93732 20.4251 2.09356Z" fill="url(#paint0_radial)"/>
<path fill-rule="evenodd" clip-rule="evenodd" d="M8.68415 19.5399C13.4803 19.5399 17.3683 15.6344 17.3683 10.8167C17.3683 5.99906 13.4803 2.09356 8.68415 2.09356C3.88803 2.09356 0 5.99906 0 10.8167C0 15.6344 3.88803 19.5399 8.68415 19.5399ZM8.68415 16.7485C11.9455 16.7485 14.5894 14.0928 14.5894 10.8167C14.5894 7.54072 11.9455 4.88498 8.68415 4.88498C5.42279 4.88498 2.77893 7.54072 2.77893 10.8167C2.77893 14.0928 5.42279 16.7485 8.68415 16.7485Z" fill="url(#paint1_radial)"/>
<path d="M28.3728 5.32471V18.7435H25.1042V5.32471H28.3728Z" fill="#28193C"/>
<path d="M36.2849 7.9626C37.5337 7.9626 38.5277 8.37039 39.2668 9.18597C40.0187 9.9888 40.3946 11.0975 40.3946 12.512V18.7435H37.1451V12.9516C37.1451 12.238 36.9603 11.6837 36.5907 11.2886C36.2212 10.8936 35.7242 10.6961 35.0998 10.6961C34.4754 10.6961 33.9784 10.8936 33.6088 11.2886C33.2393 11.6837 33.0545 12.238 33.0545 12.9516V18.7435H29.7859V8.07729H33.0545V9.49181C33.3858 9.0203 33.8318 8.65074 34.3925 8.38313C34.9532 8.10277 35.584 7.9626 36.2849 7.9626Z" fill="#28193C"/>
<path d="M46.0493 18.8965C45.119 18.8965 44.2907 18.7372 43.5644 18.4186C42.838 18.1 42.2646 17.6667 41.844 17.1187C41.4235 16.558 41.1878 15.9336 41.1368 15.2455H44.3672C44.4054 15.615 44.5775 15.9145 44.8833 16.1439C45.1891 16.3733 45.5651 16.4879 46.0111 16.4879C46.4188 16.4879 46.7311 16.4115 46.9477 16.2586C47.1771 16.0929 47.2918 15.8826 47.2918 15.6278C47.2918 15.3219 47.1325 15.0989 46.8139 14.9587C46.4953 14.8058 45.9792 14.6402 45.2656 14.4617C44.501 14.2833 43.8638 14.0986 43.3541 13.9074C42.8444 13.7035 42.4047 13.3913 42.0352 12.9708C41.6656 12.5375 41.4808 11.9577 41.4808 11.2313C41.4808 10.6196 41.6465 10.0653 41.9778 9.56827C42.3219 9.05853 42.8189 8.65711 43.4688 8.36401C44.1314 8.07092 44.9151 7.92437 45.8199 7.92437C47.158 7.92437 48.2093 8.2557 48.9739 8.91835C49.7512 9.58101 50.1972 10.4603 50.3119 11.5562H47.2918C47.2408 11.1867 47.0751 10.8936 46.7948 10.6769C46.5272 10.4603 46.1704 10.352 45.7243 10.352C45.342 10.352 45.049 10.4284 44.8451 10.5814C44.6412 10.7215 44.5392 10.9191 44.5392 11.1739C44.5392 11.4798 44.6985 11.7092 45.0171 11.8621C45.3484 12.015 45.8581 12.1679 46.5463 12.3208C47.3364 12.5247 47.9799 12.7286 48.4769 12.9325C48.9739 13.1237 49.4071 13.4423 49.7767 13.8883C50.159 14.3216 50.3565 14.9078 50.3692 15.6469C50.3692 16.2713 50.1908 16.832 49.834 17.329C49.49 17.8133 48.9866 18.1956 48.324 18.4759C47.6741 18.7563 46.9158 18.8965 46.0493 18.8965Z" fill="#28193C"/>
<path d="M57.358 15.9718V18.7435H55.695C54.5099 18.7435 53.586 18.4568 52.9233 17.8834C52.2607 17.2972 51.9293 16.3478 51.9293 15.0352V10.7916H50.6295V8.07729H51.9293V5.47763H55.198V8.07729H57.3388V10.7916H55.198V15.0734C55.198 15.392 55.2744 15.6214 55.4274 15.7616C55.5803 15.9018 55.8351 15.9718 56.192 15.9718H57.358Z" fill="#28193C"/>
<path d="M57.573 13.3913C57.573 12.2954 57.7769 11.3332 58.1847 10.5049C58.6052 9.67659 59.1723 9.03942 59.8859 8.5934C60.5995 8.14738 61.396 7.92437 62.2753 7.92437C63.0271 7.92437 63.6834 8.07729 64.2441 8.38313C64.8175 8.68897 65.2572 9.09039 65.563 9.58738V8.07729H68.8316V18.7435H65.563V17.2334C65.2444 17.7304 64.7984 18.1319 64.225 18.4377C63.6643 18.7435 63.008 18.8965 62.2561 18.8965C61.3896 18.8965 60.5995 18.6734 59.8859 18.2274C59.1723 17.7687 58.6052 17.1251 58.1847 16.2968C57.7769 15.4557 57.573 14.4872 57.573 13.3913ZM65.563 13.4104C65.563 12.5948 65.3336 11.9513 64.8749 11.4798C64.4289 11.0083 63.8809 10.7725 63.231 10.7725C62.5811 10.7725 62.0268 11.0083 61.568 11.4798C61.122 11.9385 60.899 12.5757 60.899 13.3913C60.899 14.2069 61.122 14.8568 61.568 15.341C62.0268 15.8125 62.5811 16.0483 63.231 16.0483C63.8809 16.0483 64.4289 15.8125 64.8749 15.341C65.3336 14.8695 65.563 14.226 65.563 13.4104Z" fill="#28193C"/>
<path d="M74.293 7.92437C75.0448 7.92437 75.7011 8.07729 76.2618 8.38313C76.8352 8.68897 77.2749 9.09039 77.5807 9.58738V8.07729H80.8494V18.7244C80.8494 19.7057 80.6518 20.5913 80.2568 21.3814C79.8745 22.1843 79.2819 22.8214 78.4791 23.2929C77.689 23.7644 76.7014 24.0002 75.5163 24.0002C73.9362 24.0002 72.6555 23.6243 71.6742 22.8724C70.693 22.1333 70.1323 21.1266 69.9921 19.8522H73.2225C73.3245 20.26 73.5666 20.5786 73.9489 20.808C74.3312 21.0501 74.8027 21.1712 75.3634 21.1712C76.0388 21.1712 76.574 20.9736 76.969 20.5786C77.3768 20.1963 77.5807 19.5782 77.5807 18.7244V17.2143C77.2621 17.7113 76.8225 18.1191 76.2618 18.4377C75.7011 18.7435 75.0448 18.8965 74.293 18.8965C73.4137 18.8965 72.6172 18.6734 71.9036 18.2274C71.19 17.7687 70.6229 17.1251 70.2024 16.2968C69.7946 15.4557 69.5907 14.4872 69.5907 13.3913C69.5907 12.2954 69.7946 11.3332 70.2024 10.5049C70.6229 9.67659 71.19 9.03942 71.9036 8.5934C72.6172 8.14738 73.4137 7.92437 74.293 7.92437ZM77.5807 13.4104C77.5807 12.5948 77.3513 11.9513 76.8926 11.4798C76.4466 11.0083 75.8986 10.7725 75.2487 10.7725C74.5988 10.7725 74.0445 11.0083 73.5857 11.4798C73.1397 11.9385 72.9167 12.5757 72.9167 13.3913C72.9167 14.2069 73.1397 14.8568 73.5857 15.341C74.0445 15.8125 74.5988 16.0483 75.2487 16.0483C75.8986 16.0483 76.4466 15.8125 76.8926 15.341C77.3513 14.8695 77.5807 14.226 77.5807 13.4104Z" fill="#28193C"/>
<path d="M85.527 9.855C85.9093 9.2688 86.3871 8.81003 86.9606 8.47871C87.534 8.13463 88.1712 7.9626 88.8721 7.9626V11.4224H87.9737C87.1581 11.4224 86.5464 11.6008 86.1386 11.9577C85.7309 12.3017 85.527 12.9134 85.527 13.7927V18.7435H82.2583V8.07729H85.527V9.855Z" fill="#28193C"/>
<path d="M88.8288 13.3913C88.8288 12.2954 89.0326 11.3332 89.4404 10.5049C89.861 9.67659 90.428 9.03942 91.1416 8.5934C91.8553 8.14738 92.6517 7.92437 93.531 7.92437C94.2829 7.92437 94.9391 8.07729 95.4998 8.38313C96.0733 8.68897 96.5129 9.09039 96.8188 9.58738V8.07729H100.087V18.7435H96.8188V17.2334C96.5002 17.7304 96.0542 18.1319 95.4807 18.4377C94.92 18.7435 94.2637 18.8965 93.5119 18.8965C92.6454 18.8965 91.8553 18.6734 91.1416 18.2274C90.428 17.7687 89.861 17.1251 89.4404 16.2968C89.0326 15.4557 88.8288 14.4872 88.8288 13.3913ZM96.8188 13.4104C96.8188 12.5948 96.5894 11.9513 96.1306 11.4798C95.6846 11.0083 95.1367 10.7725 94.4868 10.7725C93.8368 10.7725 93.2825 11.0083 92.8238 11.4798C92.3777 11.9385 92.1547 12.5757 92.1547 13.3913C92.1547 14.2069 92.3777 14.8568 92.8238 15.341C93.2825 15.8125 93.8368 16.0483 94.4868 16.0483C95.1367 16.0483 95.6846 15.8125 96.1306 15.341C96.5894 14.8695 96.8188 14.226 96.8188 13.4104Z" fill="#28193C"/>
<path d="M115.106 7.9626C116.431 7.9626 117.483 8.36401 118.26 9.16685C119.05 9.96969 119.445 11.0847 119.445 12.512V18.7435H116.196V12.9516C116.196 12.2635 116.011 11.7347 115.641 11.3651C115.285 10.9828 114.788 10.7916 114.15 10.7916C113.513 10.7916 113.01 10.9828 112.64 11.3651C112.284 11.7347 112.105 12.2635 112.105 12.9516V18.7435H108.856V12.9516C108.856 12.2635 108.671 11.7347 108.301 11.3651C107.944 10.9828 107.447 10.7916 106.81 10.7916C106.173 10.7916 105.67 10.9828 105.3 11.3651C104.943 11.7347 104.765 12.2635 104.765 12.9516V18.7435H101.496V8.07729H104.765V9.41535C105.096 8.96933 105.53 8.61888 106.065 8.36401C106.6 8.0964 107.205 7.9626 107.881 7.9626C108.684 7.9626 109.397 8.13463 110.022 8.47871C110.659 8.82278 111.156 9.3134 111.513 9.95057C111.882 9.36437 112.385 8.88649 113.023 8.51694C113.66 8.14738 114.354 7.9626 115.106 7.9626Z" fill="#28193C"/>
<defs>
<radialGradient id="paint0_radial" cx="0" cy="0" r="1" gradientUnits="userSpaceOnUse" gradientTransform="translate(-1.82615e-06 19.5399) rotate(-43.7311) scale(28.2665 29.686)">
<stop stop-color="#F9ED32"/>
<stop offset="0.479167" stop-color="#EE2A7B"/>
<stop offset="1" stop-color="#7000FF"/>
</radialGradient>
<radialGradient id="paint1_radial" cx="0" cy="0" r="1" gradientUnits="userSpaceOnUse" gradientTransform="translate(-1.82615e-06 19.5399) rotate(-43.7311) scale(28.2665 29.686)">
<stop stop-color="#F9ED32"/>
<stop offset="0.479167" stop-color="#EE2A7B"/>
<stop offset="1" stop-color="#7000FF"/>
</radialGradient>
</defs>
</svg>
