<svg width="24" height="24" viewBox="0 0 24 24" fill="none" xmlns="http://www.w3.org/2000/svg">
<path d="M24 2.57143C24 3.99159 22.9036 5.14286 21.551 5.14286C20.1985 5.14286 19.102 3.99159 19.102 2.57143C19.102 1.15127 20.1985 0 21.551 0C22.9036 0 24 1.15127 24 2.57143Z" fill="url(#paint0_radial)"/>
<path fill-rule="evenodd" clip-rule="evenodd" d="M10.2041 24C15.8396 24 20.4082 19.2031 20.4082 13.2857C20.4082 7.36838 15.8396 2.57143 10.2041 2.57143C4.56852 2.57143 0 7.36838 0 13.2857C0 19.2031 4.56852 24 10.2041 24ZM10.2041 20.5714C14.0363 20.5714 17.1429 17.3095 17.1429 13.2857C17.1429 9.26193 14.0363 6 10.2041 6C6.3719 6 3.26531 9.26193 3.26531 13.2857C3.26531 17.3095 6.3719 20.5714 10.2041 20.5714Z" fill="url(#paint1_radial)"/>
<defs>
<radialGradient id="paint0_radial" cx="0" cy="0" r="1" gradientUnits="userSpaceOnUse" gradientTransform="translate(-2.14577e-06 24) rotate(-45) scale(33.9411 35.6806)">
<stop stop-color="#F9ED32"/>
<stop offset="0.479167" stop-color="#EE2A7B"/>
<stop offset="1" stop-color="#7000FF"/>
</radialGradient>
<radialGradient id="paint1_radial" cx="0" cy="0" r="1" gradientUnits="userSpaceOnUse" gradientTransform="translate(-2.14577e-06 24) rotate(-45) scale(33.9411 35.6806)">
<stop stop-color="#F9ED32"/>
<stop offset="0.479167" stop-color="#EE2A7B"/>
<stop offset="1" stop-color="#7000FF"/>
</radialGradient>
</defs>
</svg>
