<svg width="95" height="19" viewBox="0 0 95 19" fill="none" xmlns="http://www.w3.org/2000/svg">
<path d="M3.37285 0.324707V13.7435H0.10421V0.324707H3.37285Z" fill="#28193C"/>
<path d="M11.2849 2.9626C12.5337 2.9626 13.5277 3.37039 14.2668 4.18597C15.0187 4.9888 15.3946 6.09748 15.3946 7.512V13.7435H12.1451V7.95165C12.1451 7.23802 11.9603 6.68368 11.5907 6.28863C11.2212 5.89358 10.7242 5.69606 10.0998 5.69606C9.47536 5.69606 8.97837 5.89358 8.60882 6.28863C8.23927 6.68368 8.05449 7.23802 8.05449 7.95165V13.7435H4.78585V3.07729H8.05449V4.49181C8.38581 4.0203 8.83183 3.65074 9.39253 3.38313C9.95323 3.10277 10.584 2.9626 11.2849 2.9626Z" fill="#28193C"/>
<path d="M21.0493 13.8965C20.119 13.8965 19.2907 13.7372 18.5644 13.4186C17.838 13.1 17.2646 12.6667 16.844 12.1187C16.4235 11.558 16.1878 10.9336 16.1368 10.2455H19.3672C19.4054 10.615 19.5775 10.9145 19.8833 11.1439C20.1891 11.3733 20.5651 11.4879 21.0111 11.4879C21.4188 11.4879 21.7311 11.4115 21.9477 11.2586C22.1771 11.0929 22.2918 10.8826 22.2918 10.6278C22.2918 10.3219 22.1325 10.0989 21.8139 9.95874C21.4953 9.80582 20.9792 9.64015 20.2656 9.46174C19.501 9.28334 18.8638 9.09856 18.3541 8.9074C17.8444 8.70351 17.4047 8.3913 17.0352 7.97076C16.6656 7.53749 16.4808 6.95766 16.4808 6.23129C16.4808 5.6196 16.6465 5.06526 16.9778 4.56827C17.3219 4.05853 17.8189 3.65711 18.4688 3.36401C19.1314 3.07092 19.9151 2.92437 20.8199 2.92437C22.158 2.92437 23.2093 3.2557 23.9739 3.91835C24.7512 4.58101 25.1972 5.46031 25.3119 6.55624H22.2918C22.2408 6.18668 22.0751 5.89358 21.7948 5.67695C21.5272 5.46031 21.1704 5.35199 20.7243 5.35199C20.342 5.35199 20.049 5.42845 19.8451 5.58137C19.6412 5.72155 19.5392 5.91907 19.5392 6.17394C19.5392 6.47978 19.6985 6.70916 20.0171 6.86209C20.3484 7.01501 20.8581 7.16793 21.5463 7.32085C22.3364 7.52474 22.9799 7.72864 23.4769 7.93253C23.9739 8.12368 24.4071 8.44227 24.7767 8.88829C25.159 9.32157 25.3565 9.90776 25.3692 10.6469C25.3692 11.2713 25.1908 11.832 24.834 12.329C24.49 12.8133 23.9866 13.1956 23.324 13.4759C22.6741 13.7563 21.9158 13.8965 21.0493 13.8965Z" fill="#28193C"/>
<path d="M32.358 10.9718V13.7435H30.695C29.5099 13.7435 28.586 13.4568 27.9233 12.8834C27.2607 12.2972 26.9293 11.3478 26.9293 10.0352V5.79164H25.6295V3.07729H26.9293V0.477628H30.198V3.07729H32.3388V5.79164H30.198V10.0734C30.198 10.392 30.2744 10.6214 30.4274 10.7616C30.5803 10.9018 30.8351 10.9718 31.192 10.9718H32.358Z" fill="#28193C"/>
<path d="M32.573 8.3913C32.573 7.29536 32.7769 6.33323 33.1847 5.50491C33.6052 4.67659 34.1723 4.03942 34.8859 3.5934C35.5995 3.14738 36.396 2.92437 37.2753 2.92437C38.0271 2.92437 38.6834 3.07729 39.2441 3.38313C39.8175 3.68897 40.2572 4.09039 40.563 4.58738V3.07729H43.8316V13.7435H40.563V12.2334C40.2444 12.7304 39.7984 13.1319 39.225 13.4377C38.6643 13.7435 38.008 13.8965 37.2561 13.8965C36.3896 13.8965 35.5995 13.6734 34.8859 13.2274C34.1723 12.7687 33.6052 12.1251 33.1847 11.2968C32.7769 10.4557 32.573 9.48723 32.573 8.3913ZM40.563 8.41041C40.563 7.59483 40.3336 6.95129 39.8749 6.47978C39.4289 6.00828 38.8809 5.77252 38.231 5.77252C37.5811 5.77252 37.0268 6.00828 36.568 6.47978C36.122 6.93855 35.899 7.57572 35.899 8.3913C35.899 9.20688 36.122 9.85679 36.568 10.341C37.0268 10.8125 37.5811 11.0483 38.231 11.0483C38.8809 11.0483 39.4289 10.8125 39.8749 10.341C40.3336 9.86954 40.563 9.22599 40.563 8.41041Z" fill="#28193C"/>
<path d="M49.293 2.92437C50.0448 2.92437 50.7011 3.07729 51.2618 3.38313C51.8352 3.68897 52.2749 4.09039 52.5807 4.58738V3.07729H55.8494V13.7244C55.8494 14.7057 55.6518 15.5913 55.2568 16.3814C54.8745 17.1843 54.2819 17.8214 53.4791 18.2929C52.689 18.7644 51.7014 19.0002 50.5163 19.0002C48.9362 19.0002 47.6555 18.6243 46.6742 17.8724C45.693 17.1333 45.1323 16.1266 44.9921 14.8522H48.2225C48.3245 15.26 48.5666 15.5786 48.9489 15.808C49.3312 16.0501 49.8027 16.1712 50.3634 16.1712C51.0388 16.1712 51.574 15.9736 51.969 15.5786C52.3768 15.1963 52.5807 14.5782 52.5807 13.7244V12.2143C52.2621 12.7113 51.8225 13.1191 51.2618 13.4377C50.7011 13.7435 50.0448 13.8965 49.293 13.8965C48.4137 13.8965 47.6172 13.6734 46.9036 13.2274C46.19 12.7687 45.6229 12.1251 45.2024 11.2968C44.7946 10.4557 44.5907 9.48723 44.5907 8.3913C44.5907 7.29536 44.7946 6.33323 45.2024 5.50491C45.6229 4.67659 46.19 4.03942 46.9036 3.5934C47.6172 3.14738 48.4137 2.92437 49.293 2.92437ZM52.5807 8.41041C52.5807 7.59483 52.3513 6.95129 51.8926 6.47978C51.4466 6.00828 50.8986 5.77252 50.2487 5.77252C49.5988 5.77252 49.0445 6.00828 48.5857 6.47978C48.1397 6.93855 47.9167 7.57572 47.9167 8.3913C47.9167 9.20688 48.1397 9.85679 48.5857 10.341C49.0445 10.8125 49.5988 11.0483 50.2487 11.0483C50.8986 11.0483 51.4466 10.8125 51.8926 10.341C52.3513 9.86954 52.5807 9.22599 52.5807 8.41041Z" fill="#28193C"/>
<path d="M60.527 4.855C60.9093 4.2688 61.3871 3.81003 61.9606 3.47871C62.534 3.13463 63.1712 2.9626 63.8721 2.9626V6.42244H62.9737C62.1581 6.42244 61.5464 6.60084 61.1386 6.95766C60.7309 7.30173 60.527 7.91342 60.527 8.79272V13.7435H57.2583V3.07729H60.527V4.855Z" fill="#28193C"/>
<path d="M63.8288 8.3913C63.8288 7.29536 64.0326 6.33323 64.4404 5.50491C64.861 4.67659 65.428 4.03942 66.1416 3.5934C66.8553 3.14738 67.6517 2.92437 68.531 2.92437C69.2829 2.92437 69.9391 3.07729 70.4998 3.38313C71.0733 3.68897 71.5129 4.09039 71.8188 4.58738V3.07729H75.0874V13.7435H71.8188V12.2334C71.5002 12.7304 71.0542 13.1319 70.4807 13.4377C69.92 13.7435 69.2637 13.8965 68.5119 13.8965C67.6454 13.8965 66.8553 13.6734 66.1416 13.2274C65.428 12.7687 64.861 12.1251 64.4404 11.2968C64.0326 10.4557 63.8288 9.48723 63.8288 8.3913ZM71.8188 8.41041C71.8188 7.59483 71.5894 6.95129 71.1306 6.47978C70.6846 6.00828 70.1367 5.77252 69.4867 5.77252C68.8368 5.77252 68.2825 6.00828 67.8238 6.47978C67.3777 6.93855 67.1547 7.57572 67.1547 8.3913C67.1547 9.20688 67.3777 9.85679 67.8238 10.341C68.2825 10.8125 68.8368 11.0483 69.4867 11.0483C70.1367 11.0483 70.6846 10.8125 71.1306 10.341C71.5894 9.86954 71.8188 9.22599 71.8188 8.41041Z" fill="#28193C"/>
<path d="M90.1061 2.9626C91.4314 2.9626 92.4827 3.36401 93.2601 4.16685C94.0502 4.96969 94.4452 6.08474 94.4452 7.512V13.7435H91.1957V7.95165C91.1957 7.2635 91.0109 6.73465 90.6413 6.36509C90.2845 5.98279 89.7876 5.79164 89.1504 5.79164C88.5132 5.79164 88.0099 5.98279 87.6403 6.36509C87.2835 6.73465 87.1051 7.2635 87.1051 7.95165V13.7435H83.8556V7.95165C83.8556 7.2635 83.6708 6.73465 83.3012 6.36509C82.9444 5.98279 82.4474 5.79164 81.8103 5.79164C81.1731 5.79164 80.6698 5.98279 80.3002 6.36509C79.9434 6.73465 79.765 7.2635 79.765 7.95165V13.7435H76.4964V3.07729H79.765V4.41535C80.0963 3.96933 80.5296 3.61888 81.0648 3.36401C81.6 3.0964 82.2053 2.9626 82.8807 2.9626C83.6835 2.9626 84.3972 3.13463 85.0216 3.47871C85.6587 3.82278 86.1557 4.3134 86.5125 4.95057C86.8821 4.36437 87.3855 3.88649 88.0226 3.51694C88.6598 3.14738 89.3543 2.9626 90.1061 2.9626Z" fill="#28193C"/>
</svg>
