<svg width="27" height="28" viewBox="0 0 27 28" fill="none" xmlns="http://www.w3.org/2000/svg">
<path d="M25.6445 11.2312L14.0085 0.526089C13.6302 0.178072 13.1321 -0.0102689 12.6182 0.000432266C12.1043 0.0111334 11.6144 0.220049 11.2509 0.583511L0.549199 11.2853L0 11.8344V27.6111H10.3125V17.7674H15.9375V27.6111H26.25V11.7883L25.6445 11.2312ZM12.6585 1.87503C12.675 1.87503 12.6648 1.87861 12.6577 1.88558C12.6504 1.87861 12.642 1.87503 12.6585 1.87503ZM24.375 25.7361H17.8125V17.7674C17.8125 17.2701 17.615 16.7932 17.2633 16.4415C16.9117 16.0899 16.4348 15.8924 15.9375 15.8924H10.3125C9.81522 15.8924 9.33831 16.0899 8.98668 16.4415C8.63504 16.7932 8.4375 17.2701 8.4375 17.7674V25.7361H1.875V12.6111L12.6585 1.90931C12.6592 1.90861 12.6593 1.90796 12.6599 1.90726L24.375 12.6111V25.7361Z" fill="#8D8D8D"/>
</svg>
