<svg width="27" height="27" viewBox="0 0 27 27" fill="none" xmlns="http://www.w3.org/2000/svg">
<path d="M10.8333 1.70833C12.6384 1.70669 14.4035 2.24046 15.9052 3.24212C17.4069 4.24379 18.5778 5.66834 19.2697 7.33557C19.9616 9.0028 20.1435 10.8378 19.7924 12.6084C19.4412 14.379 18.5728 16.0057 17.297 17.2827C16.0211 18.5597 14.3952 19.4296 12.6249 19.7824C10.8546 20.1352 9.01947 19.9549 7.35161 19.2645C5.68375 18.5741 4.25813 17.4046 3.25509 15.9038C2.25206 14.403 1.71667 12.6384 1.71667 10.8333C1.72761 8.41805 2.69137 6.10468 4.39847 4.39601C6.10558 2.68735 8.41806 1.72148 10.8333 1.70833ZM10.8333 0C8.69071 0 6.59619 0.635364 4.81466 1.82575C3.03313 3.01613 1.64459 4.70806 0.824643 6.6876C0.0046941 8.66713 -0.209842 10.8454 0.208164 12.9468C0.626171 15.0483 1.65795 16.9786 3.17301 18.4937C4.68808 20.0087 6.6184 21.0405 8.71986 21.4585C10.8213 21.8765 12.9995 21.662 14.9791 20.842C16.9586 20.0221 18.6505 18.6335 19.8409 16.852C21.0313 15.0705 21.6667 12.976 21.6667 10.8333C21.6667 7.96016 20.5253 5.20465 18.4937 3.17301C16.462 1.14137 13.7065 0 10.8333 0Z" fill="#8D8D8D"/>
<path d="M26.3917 25.2417L20.25 19.0583L19.0667 20.2333L25.2083 26.4167C25.2855 26.4944 25.3772 26.5561 25.4782 26.5984C25.5792 26.6406 25.6876 26.6626 25.7971 26.663C25.9066 26.6634 26.0151 26.6422 26.1164 26.6006C26.2177 26.5591 26.3098 26.498 26.3875 26.4208C26.4652 26.3437 26.5269 26.252 26.5692 26.151C26.6115 26.05 26.6334 25.9416 26.6338 25.8321C26.6342 25.7226 26.613 25.6141 26.5715 25.5128C26.5299 25.4115 26.4688 25.3194 26.3917 25.2417Z" fill="#8D8D8D"/>
</svg>
