<svg width="27" height="30" viewBox="0 0 27 30" fill="none" xmlns="http://www.w3.org/2000/svg">
<path d="M18.375 17.8125C16.6934 17.8125 15.8848 18.75 13.125 18.75C10.3652 18.75 9.5625 17.8125 7.875 17.8125C3.52734 17.8125 0 21.3398 0 25.6875V27.1875C0 28.7402 1.25977 30 2.8125 30H23.4375C24.9902 30 26.25 28.7402 26.25 27.1875V25.6875C26.25 21.3398 22.7227 17.8125 18.375 17.8125ZM23.4375 27.1875H2.8125V25.6875C2.8125 22.8984 5.08594 20.625 7.875 20.625C8.73047 20.625 10.1191 21.5625 13.125 21.5625C16.1543 21.5625 17.5137 20.625 18.375 20.625C21.1641 20.625 23.4375 22.8984 23.4375 25.6875V27.1875ZM13.125 16.875C17.7832 16.875 21.5625 13.0957 21.5625 8.4375C21.5625 3.7793 17.7832 0 13.125 0C8.4668 0 4.6875 3.7793 4.6875 8.4375C4.6875 13.0957 8.4668 16.875 13.125 16.875ZM13.125 2.8125C16.2246 2.8125 18.75 5.33789 18.75 8.4375C18.75 11.5371 16.2246 14.0625 13.125 14.0625C10.0254 14.0625 7.5 11.5371 7.5 8.4375C7.5 5.33789 10.0254 2.8125 13.125 2.8125Z" fill="#8D8D8D"/>
</svg>
